<?xml version="1.0" standalone="no"?>
<!DOCTYPE svg PUBLIC "-//W3C//DTD SVG 20010904//EN"
 "http://www.w3.org/TR/2001/REC-SVG-20010904/DTD/svg10.dtd">
<svg version="1.0" xmlns="http://www.w3.org/2000/svg"
 width="1513.000000pt" height="565.000000pt" viewBox="0 0 1513.000000 565.000000"
 preserveAspectRatio="xMidYMid meet">

<g transform="translate(0.000000,565.000000) scale(0.100000,-0.100000)"
fill="#000000" stroke="none">
<path d="M3123 4265 l2 -150 180 -6 c99 -3 181 -6 182 -7 2 -1 4 -82 5 -179
l3 -178 173 -3 c197 -3 190 -6 173 81 -26 122 -101 226 -200 276 -22 12 -91
35 -153 52 -128 35 -243 87 -281 127 -14 15 -40 52 -57 82 l-30 55 3 -150z"/>
<path d="M10482 4157 c-11 -19 -27 -46 -37 -60 l-17 -27 28 0 c21 1 47 17 94
60 l65 60 -57 0 c-53 0 -57 -2 -76 -33z"/>
<path d="M12208 4130 l-37 -60 27 0 c19 0 46 18 92 60 l65 59 -55 0 -55 1 -37
-60z"/>
<path d="M5155 4035 c-19 -30 -35 -57 -35 -60 0 -18 50 1 82 32 l38 37 39 -38
c26 -25 46 -37 60 -34 21 3 20 5 -14 61 -36 57 -37 57 -86 57 -49 0 -50 -1
-84 -55z"/>
<path d="M7787 4033 c-33 -53 -34 -58 -16 -61 11 -2 38 12 62 32 l44 36 33
-35 c23 -23 43 -35 62 -35 l27 0 -37 60 -37 59 -51 1 -51 0 -36 -57z"/>
<path d="M10245 4038 c-19 -29 -35 -56 -35 -60 0 -21 48 -4 80 27 l36 35 42
-36 c24 -20 50 -34 61 -32 18 3 17 7 -15 61 -36 57 -36 57 -85 57 -47 0 -49
-1 -84 -52z"/>
<path d="M12004 4057 c-11 -17 -29 -44 -38 -59 -18 -28 -18 -28 6 -28 13 0 43
16 65 35 l40 34 33 -34 c23 -23 43 -35 62 -35 l27 0 -37 60 -37 60 -50 0 c-45
0 -52 -3 -71 -33z"/>
<path d="M9090 3909 c-36 -15 -69 -48 -91 -91 -38 -74 -47 -305 -18 -456 12
-59 51 -112 103 -139 34 -18 138 -23 198 -10 34 7 41 4 76 -27 l39 -35 28 29
29 30 -37 38 -37 38 17 35 c16 29 18 63 18 239 0 188 -2 209 -21 251 -12 25
-38 59 -59 75 -34 25 -46 28 -129 31 -50 2 -102 -2 -116 -8z m143 -90 c47 -22
52 -41 55 -249 4 -190 3 -194 -15 -177 -18 16 -21 15 -52 -17 -28 -29 -30 -34
-16 -46 23 -19 18 -30 -14 -30 -17 0 -42 10 -56 23 -23 20 -27 33 -36 122 -11
115 -3 285 17 333 19 46 68 63 117 41z"/>
<path d="M10235 3913 c-38 -9 -87 -56 -109 -102 -19 -42 -21 -63 -21 -241 0
-210 6 -246 52 -301 42 -49 79 -63 168 -63 120 0 182 42 212 143 24 78 24 352
0 431 -17 59 -61 111 -110 129 -28 11 -154 13 -192 4z m130 -93 c47 -18 58
-65 59 -255 0 -149 -2 -175 -19 -210 -34 -69 -121 -73 -156 -7 -19 35 -20 383
-1 428 20 47 64 64 117 44z"/>
<path d="M10775 3906 c-37 -17 -80 -62 -96 -101 -17 -43 -24 -351 -9 -428 23
-123 82 -171 205 -172 129 0 192 59 203 190 l5 65 -60 0 -60 0 -6 -51 c-10
-83 -50 -122 -107 -104 -45 14 -55 49 -59 213 -4 194 3 257 34 288 49 49 116
15 129 -64 l6 -42 61 0 62 0 -7 47 c-17 122 -76 173 -202 173 -38 -1 -82 -7
-99 -14z"/>
<path d="M12698 3900 c-36 -19 -68 -56 -82 -95 -15 -39 -23 -235 -16 -349 9
-131 30 -183 88 -222 73 -50 217 -37 275 24 32 33 57 106 57 164 l0 38 -60 0
c-66 0 -62 4 -74 -84 -6 -47 -21 -63 -62 -72 -24 -4 -37 0 -60 19 l-29 25 0
217 0 217 29 25 c23 19 36 23 60 19 43 -9 57 -27 63 -80 l6 -46 62 0 63 0 -5
43 c-7 57 -42 126 -76 151 -42 31 -187 34 -239 6z"/>
<path d="M630 3896 c-156 -33 -273 -93 -382 -195 -161 -150 -244 -345 -241
-566 3 -312 177 -575 462 -699 101 -45 174 -59 301 -59 199 -1 377 67 515 194
67 61 63 78 -39 177 -49 48 -92 82 -104 82 -11 0 -39 -16 -63 -36 -242 -202
-593 -129 -726 152 -33 69 -38 90 -41 170 -7 150 36 261 138 358 130 124 307
164 474 106 62 -21 92 -39 157 -92 25 -21 52 -38 60 -38 22 0 189 172 189 196
0 23 -63 87 -133 133 -64 44 -159 86 -236 106 -88 23 -250 28 -331 11z"/>
<path d="M1568 3899 c-17 -9 -18 -56 -18 -760 l0 -749 26 -10 c14 -6 70 -10
125 -10 93 0 102 2 124 25 l25 24 0 729 c0 693 -1 730 -18 745 -15 14 -40 17
-133 17 -63 0 -122 -5 -131 -11z"/>
<path d="M2086 3889 l-26 -20 0 -734 0 -734 22 -15 c17 -12 48 -16 124 -16 87
0 105 3 127 21 l27 20 2 287 3 287 299 3 c212 2 303 -1 312 -9 11 -9 14 -68
14 -300 l0 -289 26 -10 c14 -6 70 -10 125 -10 93 0 102 2 124 25 l25 24 0 729
c0 693 -1 730 -18 745 -15 14 -40 17 -131 17 -62 0 -121 -5 -132 -10 -18 -10
-19 -24 -19 -298 0 -211 -3 -291 -12 -300 -17 -17 -589 -17 -606 0 -9 9 -12
89 -12 300 0 274 -1 288 -19 298 -11 5 -67 10 -124 10 -90 0 -108 -3 -131 -21z"/>
<path d="M4540 3565 l0 -347 148 4 c125 2 152 6 181 23 45 26 72 82 78 159 7
81 -21 152 -67 169 -36 14 -37 19 -7 32 33 15 57 72 57 135 0 68 -24 118 -69
144 -29 17 -58 21 -178 24 l-143 5 0 -348z m240 235 c28 -28 28 -122 1 -149
-20 -20 -93 -37 -111 -26 -6 3 -10 46 -10 101 l0 94 50 0 c37 0 55 -5 70 -20z
m14 -290 c17 -16 21 -33 21 -85 0 -85 -21 -109 -97 -110 l-53 0 -3 99 c-1 55
0 106 3 114 8 22 103 9 129 -18z"/>
<path d="M5060 3565 l0 -345 185 0 185 0 0 55 0 55 -120 0 -120 0 0 100 0 100
110 0 110 0 0 50 0 50 -110 0 -110 0 0 85 0 85 115 0 115 0 0 55 0 55 -180 0
-180 0 0 -345z"/>
<path d="M5530 3565 l0 -345 60 0 60 0 0 243 c0 141 4 236 9 227 5 -8 48 -117
97 -242 l87 -228 69 0 68 0 0 345 0 345 -60 0 -60 0 0 -242 c-1 -207 -3 -239
-14 -218 -7 14 -51 123 -96 243 l-84 217 -68 0 -68 0 0 -345z"/>
<path d="M6100 3565 l0 -345 65 0 65 0 0 155 0 155 95 0 95 0 0 -155 0 -155
65 0 65 0 0 345 0 345 -65 0 -65 0 0 -140 0 -141 -92 3 -93 3 -3 138 -3 137
-64 0 -65 0 0 -345z"/>
<path d="M6870 3903 c0 -5 36 -159 79 -343 l78 -335 86 -3 c83 -3 87 -2 92 20
3 13 34 160 71 328 36 168 67 313 70 323 5 15 -3 17 -64 17 l-68 0 -33 -187
c-58 -340 -64 -368 -71 -347 -4 10 -29 135 -56 276 l-49 258 -67 0 c-38 0 -68
-3 -68 -7z"/>
<path d="M7440 3565 l0 -345 65 0 65 0 0 345 0 345 -65 0 -65 0 0 -345z"/>
<path d="M7700 3565 l0 -345 180 0 180 0 0 55 0 55 -120 0 -120 0 0 100 0 100
110 0 110 0 0 50 0 50 -110 0 -110 0 0 85 0 85 120 0 120 0 0 55 0 55 -180 0
-180 0 0 -345z"/>
<path d="M8170 3565 l0 -345 61 0 60 0 -3 241 c-2 144 1 235 6 226 5 -7 48
-115 95 -238 l87 -224 67 -3 67 -3 0 346 0 345 -60 0 -60 0 -2 -240 -3 -239
-91 237 -92 237 -66 3 -66 3 0 -346z"/>
<path d="M9540 3643 c0 -148 5 -286 10 -307 21 -92 83 -131 207 -130 65 1 91
6 129 25 90 45 89 38 92 380 l3 299 -60 0 -60 0 -3 -273 c-3 -239 -5 -276 -20
-299 -36 -55 -137 -45 -157 14 -7 19 -11 134 -11 294 l0 264 -65 0 -65 0 0
-267z"/>
<path d="M11380 3855 l0 -55 80 0 80 0 0 -290 0 -290 65 0 65 0 0 290 0 290
75 0 75 0 0 55 0 55 -220 0 -220 0 0 -55z"/>
<path d="M11900 3565 l0 -345 185 0 185 0 0 55 0 55 -125 0 -125 0 0 100 0
100 110 0 110 0 0 50 0 50 -110 0 -110 0 0 85 0 85 120 0 120 0 0 55 0 55
-180 0 -180 0 0 -345z"/>
<path d="M13130 3565 l0 -345 65 0 65 0 0 345 0 345 -65 0 -65 0 0 -345z"/>
<path d="M13340 3855 l0 -55 75 0 75 0 0 -290 0 -290 65 0 65 0 0 290 0 290
75 0 75 0 0 55 0 55 -215 0 -215 0 0 -55z"/>
<path d="M13803 3898 c3 -7 46 -99 96 -205 l91 -192 0 -140 0 -141 60 0 60 0
0 139 0 139 66 143 c37 79 79 172 95 207 l28 62 -68 0 -69 0 -53 -129 c-30
-72 -57 -127 -61 -123 -3 4 -29 61 -56 127 l-50 120 -72 3 c-56 2 -71 0 -67
-10z"/>
<path d="M5210 3090 l0 -50 50 0 50 0 0 50 0 50 -50 0 -50 0 0 -50z"/>
<path d="M7840 3090 l0 -50 50 0 50 0 0 50 0 50 -50 0 -50 0 0 -50z"/>
<path d="M4663 2930 c-44 -26 -71 -84 -84 -177 -12 -85 -6 -180 17 -259 33
-119 169 -162 259 -82 34 29 48 60 61 131 6 36 6 37 -25 37 -27 0 -31 -4 -31
-25 0 -35 -23 -86 -48 -108 -23 -21 -79 -25 -111 -8 -42 23 -55 68 -59 201 -4
142 6 195 44 234 54 53 142 24 165 -55 10 -31 17 -39 36 -39 19 0 23 5 23 31
0 45 -28 96 -65 119 -44 27 -138 28 -182 0z"/>
<path d="M9490 2932 c-24 -12 -43 -33 -60 -67 -22 -43 -25 -66 -28 -171 -5
-161 9 -227 57 -275 59 -59 168 -66 230 -14 46 40 63 95 69 225 5 121 -11 214
-43 264 -36 54 -154 74 -225 38z m144 -43 c49 -23 61 -69 61 -229 0 -128 -2
-149 -21 -180 -26 -45 -59 -62 -107 -56 -47 5 -84 38 -97 85 -13 47 -13 256 0
302 15 54 55 89 101 89 21 0 49 -5 63 -11z"/>
<path d="M11844 2934 c-59 -29 -94 -130 -94 -268 0 -154 31 -238 100 -273 89
-46 196 -17 230 60 31 69 43 182 31 286 -17 156 -63 211 -176 211 -33 0 -74
-7 -91 -16z m159 -55 c36 -28 48 -81 49 -213 0 -174 -26 -232 -109 -242 -51
-6 -84 12 -108 61 -17 34 -20 60 -20 170 0 144 11 193 52 225 35 27 102 27
136 -1z"/>
<path d="M12277 2932 c-41 -25 -71 -93 -64 -149 7 -68 32 -93 128 -131 123
-49 149 -80 129 -151 -12 -47 -37 -70 -84 -78 -71 -11 -126 35 -126 107 0 27
-3 30 -31 30 l-32 0 6 -45 c13 -94 54 -132 151 -142 40 -3 60 0 95 19 62 32
83 75 79 156 -3 54 -8 67 -33 91 -17 16 -63 41 -105 56 -97 34 -120 56 -120
111 0 70 36 99 118 95 31 -1 72 -44 72 -76 0 -20 5 -25 25 -25 21 0 25 5 25
31 0 39 -25 82 -60 103 -38 22 -136 21 -173 -2z"/>
<path d="M5020 2660 l0 -280 30 0 30 0 0 280 0 280 -30 0 -30 0 0 -280z"/>
<path d="M5150 2915 c0 -24 2 -25 75 -25 l75 0 0 -250 0 -250 30 0 30 0 0 250
0 250 70 0 c68 0 70 1 70 25 l0 25 -175 0 -175 0 0 -25z"/>
<path d="M5510 2935 c0 -3 38 -82 85 -175 l85 -170 0 -100 0 -100 30 0 30 0 0
113 1 112 83 163 83 162 -31 0 c-30 0 -34 -5 -100 -137 l-69 -138 -65 138
c-65 136 -66 137 -99 137 -18 0 -33 -2 -33 -5z"/>
<path d="M6160 2660 l0 -280 30 0 30 0 0 280 0 280 -30 0 -30 0 0 -280z"/>
<path d="M6330 2665 l0 -275 31 0 31 0 -4 240 c-2 132 -1 240 2 240 3 0 49
-108 104 -240 l98 -240 39 0 39 0 0 275 0 275 -25 0 -25 0 -2 -240 -3 -240
-100 240 -100 240 -42 0 -43 0 0 -275z"/>
<path d="M6740 2915 c0 -24 2 -25 75 -25 l75 0 0 -250 0 -250 30 0 30 0 0 250
0 250 70 0 c68 0 70 1 70 25 l0 25 -175 0 -175 0 0 -25z"/>
<path d="M7160 2665 l0 -275 140 0 140 0 0 25 0 25 -110 0 -110 0 0 105 0 105
100 0 100 0 0 25 0 25 -100 0 -100 0 0 95 0 95 110 0 110 0 0 25 0 25 -140 0
-140 0 0 -275z"/>
<path d="M7540 2661 l0 -281 25 0 25 0 0 125 0 125 73 0 c39 0 83 -6 97 -13
31 -16 49 -65 49 -139 1 -78 7 -88 48 -88 23 0 32 4 27 11 -4 6 -10 49 -15 94
-11 110 -21 133 -66 151 l-37 16 29 13 c17 7 39 22 49 34 26 28 32 107 13 153
-24 57 -62 72 -199 76 l-118 4 0 -281z m246 196 c17 -20 24 -40 24 -68 0 -74
-73 -118 -180 -107 l-35 3 -3 104 -3 103 87 -3 c80 -4 87 -6 110 -32z"/>
<path d="M7990 2666 l0 -276 25 0 25 0 2 243 3 242 100 -242 100 -243 43 0 42
0 0 275 0 275 -31 0 -32 0 5 -240 c2 -132 2 -237 -1 -234 -3 3 -49 110 -103
237 l-97 232 -40 3 -41 3 0 -275z"/>
<path d="M8480 2678 c-40 -145 -75 -269 -78 -275 -3 -9 6 -13 26 -13 24 0 31
5 37 28 3 15 13 51 21 80 l15 52 90 0 c101 0 94 6 124 -102 15 -54 19 -58 46
-58 16 0 29 1 29 3 0 1 -36 124 -79 272 l-78 270 -40 3 -39 3 -74 -263z m154
72 c20 -74 36 -138 36 -142 0 -5 -36 -8 -79 -8 l-79 0 35 133 c40 154 42 161
48 156 2 -3 20 -65 39 -139z"/>
<path d="M8820 2915 c0 -24 2 -25 75 -25 l75 0 0 -250 0 -250 30 0 30 0 0 250
0 250 70 0 c68 0 70 1 70 25 l0 25 -175 0 -175 0 0 -25z"/>
<path d="M9240 2660 l0 -280 30 0 30 0 0 280 0 280 -30 0 -30 0 0 -280z"/>
<path d="M9860 2666 l0 -276 28 0 28 0 -4 243 c-2 133 0 238 4 234 5 -5 52
-113 105 -240 l96 -232 41 -3 42 -3 0 275 0 276 -31 0 -31 0 7 -242 c4 -134 4
-240 1 -236 -4 3 -51 111 -105 240 l-97 233 -42 3 -42 3 0 -275z"/>
<path d="M10351 2677 c-41 -144 -76 -268 -78 -274 -3 -9 6 -13 26 -13 27 0 31
4 41 43 6 23 16 59 22 80 l11 37 93 0 93 0 11 -42 c31 -117 31 -118 63 -118
19 0 28 4 25 13 -3 6 -38 130 -79 274 l-74 263 -40 0 -40 0 -74 -263z m155 76
c18 -70 34 -134 34 -140 0 -9 -22 -13 -75 -13 -53 0 -75 4 -75 13 0 6 11 53
24 102 14 50 30 110 36 134 6 23 14 41 16 38 3 -3 21 -63 40 -134z"/>
<path d="M10730 2665 l0 -275 145 0 145 0 0 25 0 25 -115 0 -115 0 0 250 0
250 -30 0 -30 0 0 -275z"/>
<path d="M11310 2665 l0 -275 30 0 30 0 0 135 0 135 110 0 110 0 0 -135 0
-135 30 0 30 0 0 275 0 275 -30 0 -30 0 0 -115 0 -115 -110 0 -110 0 0 115 0
115 -30 0 -30 0 0 -275z"/>
<path d="M12630 2661 l0 -281 30 0 30 0 0 120 0 120 68 0 c130 1 192 53 192
163 0 119 -40 149 -207 155 l-113 4 0 -281z m213 217 c12 -6 27 -18 34 -27 15
-20 17 -105 2 -133 -15 -28 -70 -48 -134 -48 l-55 0 0 110 0 110 66 0 c36 0
75 -5 87 -12z"/>
<path d="M13040 2660 l0 -280 30 0 30 0 0 280 0 280 -30 0 -30 0 0 -280z"/>
<path d="M13170 2915 c0 -23 3 -24 73 -27 l72 -3 3 -247 2 -248 30 0 30 0 0
250 0 250 70 0 c68 0 70 1 70 25 l0 25 -175 0 -175 0 0 -25z"/>
<path d="M13626 2671 c-42 -147 -76 -271 -76 -275 0 -3 13 -6 28 -6 27 0 29 4
48 78 l20 77 95 0 94 0 21 -75 c20 -71 23 -75 52 -78 30 -3 31 -2 23 25 -5 15
-32 109 -60 208 -29 99 -61 210 -72 248 l-20 67 -38 0 -38 0 -77 -269z m153
94 c17 -66 34 -130 37 -142 6 -23 5 -23 -76 -23 -67 0 -81 3 -77 14 3 8 20 70
38 138 31 122 38 142 44 136 2 -2 17 -57 34 -123z"/>
<path d="M14010 2665 l0 -275 145 0 145 0 0 25 0 25 -115 0 -115 0 0 250 0
250 -30 0 -30 0 0 -275z"/>
<path d="M11888 1949 c-153 -17 -279 -80 -398 -199 -69 -68 -94 -102 -127
-170 -118 -240 -91 -503 72 -719 130 -171 353 -272 570 -257 176 12 310 72
430 191 90 90 146 177 176 277 145 473 -233 931 -723 877z m173 -241 c86 -29
133 -96 145 -205 l7 -63 -80 0 -80 0 -6 52 c-8 67 -33 93 -88 93 -31 0 -46 -6
-60 -24 -45 -55 -14 -104 125 -200 166 -115 196 -160 196 -291 -1 -140 -78
-221 -227 -236 -41 -5 -76 -2 -116 10 -108 31 -155 99 -164 237 l-6 79 85 0
86 0 4 -74 c4 -90 22 -116 78 -116 47 0 87 31 95 73 12 64 -17 103 -145 190
-109 74 -164 133 -178 189 -32 125 12 232 113 279 47 22 163 26 216 7z"/>
<path d="M13620 1950 c-220 -34 -415 -178 -510 -375 -95 -199 -93 -403 5 -603
189 -383 700 -492 1031 -221 75 62 131 135 179 234 54 113 69 175 68 295 0
298 -190 555 -476 645 -83 26 -217 37 -297 25z m360 -320 l0 -70 -90 0 -90 0
-2 -352 -3 -353 -77 -3 -78 -3 0 356 0 355 -90 0 -90 0 0 70 0 70 260 0 260 0
0 -70z"/>
<path d="M217 1624 c-76 -18 -147 -39 -158 -44 -27 -15 -24 -46 7 -67 23 -14
32 -15 71 -4 25 6 48 10 50 7 3 -2 -5 -26 -16 -51 -12 -26 -21 -55 -21 -63 0
-9 -15 -61 -32 -115 -29 -89 -37 -102 -70 -123 -44 -28 -51 -38 -43 -64 5 -16
12 -19 32 -14 20 5 25 4 21 -7 -3 -8 -16 -67 -29 -132 l-24 -119 24 -19 c13
-10 32 -19 43 -19 25 0 52 61 51 115 -1 43 31 195 48 226 5 11 47 38 92 60
161 81 273 162 347 251 63 75 66 106 15 154 -77 73 -197 81 -408 28z m317 -64
c17 -6 26 -17 26 -30 0 -24 -84 -117 -138 -152 -121 -80 -199 -128 -209 -128
-15 0 84 292 104 308 20 15 180 17 217 2z"/>
<path d="M3075 1645 c-104 -19 -278 -65 -292 -77 -21 -17 -15 -46 13 -65 24
-16 29 -16 72 0 25 10 47 15 50 12 3 -2 -4 -30 -15 -62 -11 -32 -36 -107 -54
-167 -31 -99 -37 -111 -71 -132 -44 -28 -51 -38 -43 -64 5 -16 12 -19 32 -14
22 6 25 4 20 -10 -4 -10 -17 -69 -28 -132 -21 -111 -21 -115 -3 -135 26 -29
65 -22 83 16 8 17 15 57 16 90 2 57 24 163 45 213 6 14 41 38 98 66 125 61
218 123 300 200 85 81 109 124 92 167 -33 78 -174 120 -315 94z m195 -99 c36
-17 29 -38 -31 -106 -39 -43 -87 -80 -172 -131 -65 -39 -121 -69 -124 -66 -5
6 85 287 96 300 23 25 179 27 231 3z"/>
<path d="M1032 1508 c-5 -7 -22 -48 -36 -91 -43 -129 -59 -154 -104 -162 -44
-7 -100 -38 -108 -60 -7 -17 21 -65 37 -65 6 0 22 9 36 20 15 11 28 19 30 17
1 -2 -8 -37 -22 -78 -65 -190 -31 -303 87 -285 50 7 121 60 131 96 7 26 -3 25
-87 -4 -39 -14 -74 -22 -79 -19 -21 13 -1 147 34 228 l34 80 56 3 c51 3 56 1
67 -23 17 -37 39 -41 67 -15 14 13 28 21 31 18 3 -4 -7 -39 -22 -80 -47 -127
-34 -264 27 -283 11 -4 42 -4 67 0 37 5 56 16 89 50 67 66 54 83 -35 45 -26
-11 -58 -21 -72 -22 -25 -3 -25 -2 -24 72 0 63 6 88 35 155 l34 80 73 3 c73 3
73 3 70 29 -2 22 -12 30 -48 42 l-45 16 24 60 c13 33 26 83 29 112 4 45 2 52
-18 63 -31 17 -42 3 -74 -95 -45 -134 -54 -148 -108 -162 -26 -6 -52 -14 -57
-17 -6 -4 -28 2 -50 14 -22 11 -48 20 -57 20 -9 0 -14 5 -11 13 63 143 74 207
38 227 -25 13 -26 13 -39 -2z"/>
<path d="M3683 1498 c-6 -7 -22 -49 -37 -93 -45 -135 -54 -147 -111 -163 -93
-26 -128 -68 -87 -105 24 -22 28 -21 59 3 15 11 28 18 31 16 2 -3 -9 -40 -24
-83 -37 -101 -40 -206 -8 -250 17 -23 30 -28 70 -31 59 -3 109 21 142 68 12
18 22 37 22 42 0 10 -45 0 -80 -18 -14 -7 -43 -16 -64 -20 l-39 -7 5 74 c3 52
15 99 39 159 l34 85 73 3 c73 3 73 3 70 30 -2 21 -11 29 -49 40 l-46 15 24 59
c36 90 45 149 26 171 -19 20 -37 22 -50 5z"/>
<path d="M4947 1503 c-2 -5 -15 -39 -27 -78 -13 -38 -33 -93 -45 -121 -21 -48
-26 -52 -64 -59 -50 -8 -105 -44 -109 -70 -1 -11 4 -29 12 -40 15 -19 16 -19
46 -2 46 25 52 21 34 -20 -47 -110 -57 -242 -21 -297 15 -22 25 -26 63 -26 55
0 100 18 136 55 25 25 28 26 34 9 12 -39 22 -49 62 -62 58 -19 137 4 192 57
71 68 52 120 -68 180 -33 17 -63 35 -66 40 -9 14 40 45 138 91 65 29 86 44 86
58 0 21 -18 32 -51 32 -35 0 -172 -74 -223 -121 -49 -45 -49 -46 -37 -77 10
-24 30 -38 93 -68 115 -55 119 -72 27 -113 -59 -27 -85 -26 -105 4 -9 14 -21
22 -26 19 -6 -4 -14 -1 -18 5 -5 9 -28 5 -89 -16 -88 -29 -100 -26 -101 23 0
38 38 171 65 223 l25 51 70 0 c61 0 70 2 70 18 0 24 -31 52 -56 52 -42 0 -46
14 -19 72 31 68 43 151 25 173 -13 16 -46 20 -53 8z"/>
<path d="M1603 1433 c-20 -7 -15 -51 6 -63 35 -18 67 -12 80 16 9 20 9 30 0
40 -11 14 -61 18 -86 7z"/>
<path d="M3887 1423 c-14 -13 -6 -53 12 -63 32 -17 60 -11 77 15 13 20 14 28
4 40 -12 15 -81 21 -93 8z"/>
<path d="M1516 1238 c-35 -79 -56 -176 -63 -285 -5 -91 -4 -100 17 -125 39
-50 130 -26 165 42 19 37 43 39 47 4 4 -38 28 -50 63 -33 16 8 69 67 119 133
49 66 92 114 94 107 2 -7 -1 -47 -7 -89 -11 -77 -6 -126 18 -170 9 -16 21 -22
46 -22 41 0 39 -3 20 43 -19 46 -19 101 0 200 26 136 18 177 -32 177 -25 0
-120 -88 -171 -159 -37 -50 -39 -41 -16 60 17 75 14 113 -11 123 -38 14 -49
-5 -75 -139 -11 -57 -17 -65 -102 -150 -87 -87 -91 -89 -99 -66 -5 13 -7 40
-3 60 17 106 39 192 62 245 29 65 24 89 -22 94 -23 3 -29 -3 -50 -50z"/>
<path d="M2310 1271 c-50 -10 -73 -25 -114 -73 -83 -97 -118 -233 -79 -308 21
-40 75 -80 109 -80 33 0 31 -21 -12 -149 -56 -170 -108 -245 -176 -256 l-42
-7 27 -24 c54 -46 114 -25 177 63 34 48 56 106 141 366 55 170 103 324 106
341 8 50 -13 111 -42 124 -28 13 -42 13 -95 3z m51 -88 c4 -62 -32 -200 -67
-261 -21 -36 -30 -43 -51 -40 -65 8 -83 97 -38 192 40 84 153 163 156 109z"/>
<path d="M3233 1242 c-99 -79 -152 -161 -173 -270 -14 -71 -9 -132 14 -167 30
-45 100 -26 151 41 l29 38 13 -32 c15 -37 46 -56 77 -48 35 9 76 45 76 68 0
17 -4 19 -27 14 -52 -12 -56 -11 -65 19 -6 23 0 60 28 157 39 137 40 171 9
177 -11 2 -31 12 -44 22 -13 11 -27 19 -31 19 -5 0 -30 -17 -57 -38z m19 -119
c-4 -23 -2 -25 18 -20 20 5 22 3 16 -24 -16 -79 -116 -229 -153 -229 -13 0
-15 10 -11 58 6 62 35 128 87 200 36 48 50 54 43 15z"/>
<path d="M3839 1233 c-35 -81 -59 -184 -65 -279 -8 -109 -2 -138 32 -160 35
-23 92 -5 133 41 17 19 32 35 34 35 3 0 10 -14 18 -31 8 -20 25 -37 45 -45 56
-24 103 -17 183 26 73 38 75 39 88 20 17 -24 50 -26 81 -5 12 9 58 66 103 128
82 114 107 139 96 96 -15 -56 -19 -177 -7 -213 14 -43 46 -68 78 -59 24 6 27
14 13 28 -26 27 -29 97 -9 216 23 134 19 166 -17 175 -34 8 -79 -27 -157 -122
-34 -41 -63 -73 -65 -71 -2 2 6 43 17 91 22 97 17 126 -25 126 -30 0 -31 -2
-49 -87 -8 -39 -24 -102 -35 -141 l-22 -71 -80 -41 c-91 -45 -145 -52 -172
-22 -33 37 -10 122 32 122 25 0 122 81 155 129 61 88 53 161 -19 161 -28 0
-46 -9 -80 -41 -58 -54 -119 -145 -146 -220 -18 -48 -35 -71 -83 -115 -61 -55
-61 -55 -69 -30 -15 45 22 218 74 343 16 38 1 63 -38 63 -19 0 -28 -10 -44
-47z m381 -39 c0 -22 -83 -104 -104 -104 -22 0 -8 26 43 80 40 42 61 50 61 24z"/>
<path d="M676 1238 c-8 -13 -31 -61 -51 -107 -57 -134 -157 -261 -206 -261
-15 0 -19 7 -19 36 0 44 33 176 60 239 11 26 20 55 20 65 0 22 -31 42 -47 32
-34 -22 -88 -189 -99 -306 -5 -62 -3 -78 15 -114 12 -23 26 -42 31 -42 34 0
120 46 161 85 l46 46 21 -35 c24 -41 52 -46 107 -20 56 26 105 103 80 124 -10
9 -24 3 -60 -24 -63 -49 -75 -47 -75 10 0 32 13 76 40 140 22 52 40 100 40
108 0 48 -39 62 -64 24z"/>
</g>
</svg>
